<svg xmlns="http://www.w3.org/2000/svg" xmlns:xlink="http://www.w3.org/1999/xlink" width="1920" zoomAndPan="magnify" viewBox="0 0 1440 809.999993" height="1080" preserveAspectRatio="xMidYMid meet" version="1.0"><defs><clipPath id="51ad3a123e"><path d="M 1250 537 L 1415 537 L 1415 670 L 1250 670 Z M 1250 537 " clip-rule="nonzero"/></clipPath><clipPath id="2f79c0dcd6"><path d="M 1362.195312 739.460938 L 1250.671875 704.085938 L 1303.507812 537.515625 L 1415.035156 572.890625 Z M 1362.195312 739.460938 " clip-rule="nonzero"/></clipPath><clipPath id="3efe1479c3"><path d="M 1362.195312 739.460938 L 941.121094 605.894531 L 995.09375 435.75 L 1416.167969 569.316406 Z M 1362.195312 739.460938 " clip-rule="nonzero"/></clipPath><clipPath id="43e8ba8770"><path d="M 956 547 L 1438 547 L 1438 735 L 956 735 Z M 956 547 " clip-rule="nonzero"/></clipPath><clipPath id="14118c33ec"><path d="M 1434.140625 758.359375 L 948.355469 743.917969 L 954.195312 547.503906 L 1439.980469 561.945312 Z M 1434.140625 758.359375 " clip-rule="nonzero"/></clipPath><clipPath id="d03b0a34d5"><path d="M 1434.140625 758.359375 L 948.355469 743.917969 L 954.195312 547.503906 L 1439.980469 561.945312 Z M 1434.140625 758.359375 " clip-rule="nonzero"/></clipPath><clipPath id="e030245320"><path d="M 41 0 L 504 0 L 504 167 L 41 167 Z M 41 0 " clip-rule="nonzero"/></clipPath><clipPath id="659458605d"><path d="M 70.59375 -100.097656 L 537.417969 -22.378906 L 505.886719 167.015625 L 39.0625 89.292969 Z M 70.59375 -100.097656 " clip-rule="nonzero"/></clipPath><clipPath id="e80cf96213"><path d="M 70.59375 -100.097656 L 537.417969 -22.378906 L 505.886719 167.015625 L 39.0625 89.292969 Z M 70.59375 -100.097656 " clip-rule="nonzero"/></clipPath><clipPath id="60afe025df"><path d="M 22 0 L 528 0 L 528 101 L 22 101 Z M 22 0 " clip-rule="nonzero"/></clipPath><clipPath id="fda4e75531"><path d="M -23.117188 -105.421875 L 486.25 -212.484375 L 529.601562 -6.238281 L 20.230469 100.820312 Z M -23.117188 -105.421875 " clip-rule="nonzero"/></clipPath><clipPath id="a6686f275b"><path d="M -23.117188 -105.421875 L 486.25 -212.484375 L 529.601562 -6.238281 L 20.230469 100.820312 Z M -23.117188 -105.421875 " clip-rule="nonzero"/></clipPath><clipPath id="9afdedf65f"><path d="M 301.441406 0 L 618.691406 0 L 618.691406 214.429688 L 301.441406 214.429688 Z M 301.441406 0 " clip-rule="nonzero"/></clipPath><clipPath id="38b1ab414f"><path d="M 738.011719 296 L 1263.761719 296 L 1263.761719 810 L 738.011719 810 Z M 738.011719 296 " clip-rule="nonzero"/></clipPath><clipPath id="60f52e79db"><path d="M 1169 617 L 1271.402344 617 L 1271.402344 759.007812 L 1169 759.007812 Z M 1169 617 " clip-rule="nonzero"/></clipPath></defs><g clip-path="url(#51ad3a123e)"><g clip-path="url(#2f79c0dcd6)"><g clip-path="url(#3efe1479c3)"><path fill="#e65f07" d="M 997.335938 435.976562 C 999.503906 447.203125 1002.382812 458.246094 1005.976562 469.097656 C 1009.574219 479.953125 1013.851562 490.527344 1018.816406 500.828125 C 1023.78125 511.125 1029.390625 521.0625 1035.640625 530.636719 C 1041.894531 540.207031 1048.734375 549.339844 1056.167969 558.027344 C 1059.769531 562.203125 1063.507812 566.25 1067.386719 570.167969 C 1071.265625 574.085938 1075.277344 577.863281 1079.414062 581.503906 C 1083.554688 585.144531 1087.816406 588.640625 1092.199219 591.988281 C 1096.578125 595.332031 1101.070312 598.523438 1105.671875 601.5625 C 1110.273438 604.597656 1114.976562 607.472656 1119.777344 610.183594 C 1124.578125 612.894531 1129.464844 615.4375 1134.441406 617.8125 C 1139.417969 620.1875 1144.46875 622.386719 1149.597656 624.414062 C 1154.722656 626.4375 1159.914062 628.285156 1165.171875 629.953125 C 1170.425781 631.617188 1175.734375 633.101562 1181.089844 634.402344 C 1186.449219 635.703125 1191.84375 636.816406 1197.28125 637.746094 C 1202.714844 638.671875 1208.175781 639.414062 1213.660156 639.964844 C 1219.144531 640.515625 1224.644531 640.875 1230.15625 641.046875 C 1235.664062 641.21875 1241.175781 641.199219 1246.683594 640.988281 C 1252.195312 640.78125 1257.691406 640.382812 1263.171875 639.792969 C 1268.652344 639.203125 1274.109375 638.425781 1279.539062 637.460938 C 1284.964844 636.496094 1290.355469 635.34375 1295.703125 634.007812 C 1306.78125 631.183594 1317.632812 627.664062 1328.257812 623.441406 C 1338.882812 619.21875 1349.191406 614.332031 1359.183594 608.777344 C 1369.175781 603.222656 1378.769531 597.046875 1387.964844 590.253906 C 1397.160156 583.460938 1405.882812 576.105469 1414.125 568.183594 C 1410.894531 573.292969 1407.453125 578.257812 1403.796875 583.074219 C 1400.144531 587.894531 1396.292969 592.546875 1392.246094 597.039062 C 1388.199219 601.527344 1383.964844 605.839844 1379.550781 609.972656 C 1375.136719 614.105469 1370.554688 618.039062 1365.808594 621.785156 C 1361.058594 625.527344 1356.160156 629.058594 1351.109375 632.386719 C 1346.0625 635.714844 1340.882812 638.820312 1335.570312 641.707031 C 1330.257812 644.59375 1324.832031 647.25 1319.292969 649.675781 C 1313.753906 652.105469 1308.125 654.289062 1302.398438 656.238281 C 1299.472656 657.253906 1296.527344 658.207031 1293.558594 659.101562 C 1290.59375 659.996094 1287.613281 660.832031 1284.613281 661.605469 C 1281.613281 662.382812 1278.597656 663.097656 1275.570312 663.753906 C 1272.542969 664.40625 1269.503906 665 1266.453125 665.535156 C 1263.402344 666.070312 1260.339844 666.539062 1257.269531 666.953125 C 1254.199219 667.363281 1251.121094 667.710938 1248.035156 668 C 1244.953125 668.285156 1241.863281 668.511719 1238.769531 668.675781 C 1235.675781 668.839844 1232.578125 668.941406 1229.480469 668.984375 C 1226.382812 669.023438 1223.285156 669 1220.191406 668.917969 C 1217.09375 668.832031 1214 668.6875 1210.910156 668.480469 C 1207.816406 668.273438 1204.730469 668.003906 1201.652344 667.671875 C 1198.570312 667.339844 1195.5 666.949219 1192.433594 666.496094 C 1189.371094 666.039062 1186.316406 665.523438 1183.273438 664.949219 C 1180.226562 664.371094 1177.195312 663.734375 1174.179688 663.039062 C 1171.160156 662.339844 1168.15625 661.582031 1165.167969 660.765625 C 1162.179688 659.945312 1159.210938 659.070312 1156.257812 658.132812 C 1153.304688 657.195312 1150.371094 656.203125 1147.457031 655.148438 C 1144.546875 654.09375 1141.65625 652.980469 1138.785156 651.8125 C 1135.917969 650.640625 1133.074219 649.414062 1130.253906 648.132812 C 1127.433594 646.847656 1124.640625 645.507812 1121.875 644.113281 C 1119.109375 642.71875 1116.371094 641.269531 1113.664062 639.761719 C 1110.957031 638.257812 1108.28125 636.699219 1105.636719 635.085938 C 1102.988281 633.476562 1100.378906 631.8125 1097.796875 630.09375 C 1095.21875 628.378906 1092.675781 626.609375 1090.167969 624.792969 C 1087.660156 622.972656 1085.1875 621.105469 1082.753906 619.1875 C 1080.320312 617.273438 1077.925781 615.308594 1075.574219 613.292969 C 1073.21875 611.28125 1070.90625 609.222656 1068.632812 607.117188 C 1066.359375 605.011719 1064.128906 602.859375 1061.945312 600.664062 C 1059.757812 598.46875 1057.617188 596.234375 1055.519531 593.953125 C 1053.421875 591.671875 1051.371094 589.351562 1049.367188 586.988281 C 1047.363281 584.625 1045.410156 582.222656 1043.5 579.78125 C 1041.59375 577.339844 1039.734375 574.863281 1037.925781 572.347656 C 1034.371094 567.457031 1031.03125 562.421875 1027.902344 557.246094 C 1024.773438 552.070312 1021.871094 546.773438 1019.191406 541.351562 C 1016.515625 535.929688 1014.070312 530.40625 1011.859375 524.777344 C 1009.652344 519.144531 1007.683594 513.433594 1005.957031 507.636719 C 1004.234375 501.84375 1002.757812 495.984375 1001.527344 490.0625 C 1000.300781 484.140625 999.324219 478.179688 998.601562 472.175781 C 997.878906 466.171875 997.414062 460.148438 997.203125 454.101562 C 996.992188 448.058594 997.035156 442.019531 997.335938 435.976562 Z M 997.335938 435.976562 " fill-opacity="1" fill-rule="nonzero"/></g></g></g><g clip-path="url(#43e8ba8770)"><g clip-path="url(#14118c33ec)"><g clip-path="url(#d03b0a34d5)"><path fill="#6d9573" d="M 956.519531 547.136719 C 962.195312 558.367188 968.570312 569.183594 975.644531 579.585938 C 982.722656 589.988281 990.441406 599.890625 998.796875 609.296875 C 1007.15625 618.699219 1016.085938 627.523438 1025.589844 635.773438 C 1035.089844 644.019531 1045.082031 651.621094 1055.570312 658.574219 C 1060.636719 661.910156 1065.816406 665.066406 1071.101562 668.042969 C 1076.386719 671.019531 1081.769531 673.8125 1087.25 676.417969 C 1092.726562 679.023438 1098.289062 681.4375 1103.9375 683.65625 C 1109.582031 685.878906 1115.296875 687.902344 1121.085938 689.730469 C 1126.871094 691.554688 1132.710938 693.179688 1138.609375 694.605469 C 1144.507812 696.027344 1150.445312 697.246094 1156.429688 698.257812 C 1162.410156 699.273438 1168.421875 700.078125 1174.457031 700.675781 C 1180.496094 701.273438 1186.546875 701.664062 1192.609375 701.84375 C 1198.675781 702.023438 1204.738281 701.996094 1210.800781 701.757812 C 1216.863281 701.519531 1222.910156 701.070312 1228.941406 700.414062 C 1234.972656 699.757812 1240.976562 698.894531 1246.949219 697.824219 C 1252.917969 696.753906 1258.847656 695.480469 1264.730469 694 C 1270.617188 692.519531 1276.441406 690.839844 1282.210938 688.957031 C 1287.976562 687.074219 1293.671875 684.996094 1299.296875 682.71875 C 1304.921875 680.445312 1310.460938 677.976562 1315.914062 675.320312 C 1321.367188 672.660156 1326.722656 669.820312 1331.980469 666.792969 C 1342.859375 660.464844 1353.28125 653.46875 1363.253906 645.796875 C 1373.226562 638.125 1382.660156 629.847656 1391.5625 620.957031 C 1400.464844 612.066406 1408.757812 602.640625 1416.441406 592.675781 C 1424.125 582.714844 1431.136719 572.300781 1437.476562 561.433594 C 1435.597656 567.816406 1433.449219 574.109375 1431.035156 580.308594 C 1428.621094 586.507812 1425.949219 592.59375 1423.015625 598.566406 C 1420.085938 604.539062 1416.90625 610.378906 1413.480469 616.082031 C 1410.054688 621.785156 1406.390625 627.332031 1402.492188 632.726562 C 1398.597656 638.117188 1394.476562 643.335938 1390.136719 648.378906 C 1385.796875 653.421875 1381.25 658.269531 1376.496094 662.925781 C 1371.742188 667.582031 1366.804688 672.03125 1361.671875 676.265625 C 1356.542969 680.503906 1351.242188 684.515625 1345.773438 688.304688 C 1342.980469 690.257812 1340.148438 692.15625 1337.277344 693.996094 C 1334.410156 695.835938 1331.503906 697.621094 1328.5625 699.34375 C 1325.625 701.070312 1322.648438 702.734375 1319.640625 704.339844 C 1316.636719 705.945312 1313.597656 707.492188 1310.527344 708.976562 C 1307.457031 710.460938 1304.363281 711.882812 1301.234375 713.242188 C 1298.109375 714.605469 1294.957031 715.902344 1291.78125 717.136719 C 1288.601562 718.371094 1285.402344 719.539062 1282.175781 720.644531 C 1278.953125 721.75 1275.707031 722.792969 1272.4375 723.769531 C 1269.171875 724.746094 1265.886719 725.65625 1262.585938 726.5 C 1259.28125 727.34375 1255.964844 728.125 1252.628906 728.835938 C 1249.296875 729.546875 1245.949219 730.191406 1242.589844 730.769531 C 1239.230469 731.347656 1235.859375 731.859375 1232.480469 732.300781 C 1229.101562 732.746094 1225.710938 733.121094 1222.316406 733.425781 C 1218.921875 733.734375 1215.523438 733.972656 1212.117188 734.144531 C 1208.710938 734.316406 1205.304688 734.421875 1201.898438 734.457031 C 1198.488281 734.492188 1195.078125 734.457031 1191.671875 734.355469 C 1188.265625 734.253906 1184.859375 734.085938 1181.460938 733.847656 C 1178.058594 733.609375 1174.664062 733.304688 1171.273438 732.933594 C 1167.886719 732.558594 1164.507812 732.117188 1161.136719 731.609375 C 1157.765625 731.101562 1154.40625 730.523438 1151.058594 729.882812 C 1147.710938 729.238281 1144.375 728.527344 1141.054688 727.75 C 1137.738281 726.976562 1134.433594 726.132812 1131.148438 725.222656 C 1127.863281 724.316406 1124.597656 723.339844 1121.351562 722.300781 C 1118.101562 721.261719 1114.878906 720.160156 1111.675781 718.988281 C 1108.472656 717.820312 1105.296875 716.589844 1102.140625 715.292969 C 1098.988281 714 1095.863281 712.640625 1092.761719 711.21875 C 1089.664062 709.796875 1086.59375 708.316406 1083.554688 706.773438 C 1080.515625 705.230469 1077.507812 703.625 1074.53125 701.960938 C 1071.558594 700.296875 1068.617188 698.574219 1065.710938 696.792969 C 1062.804688 695.011719 1059.933594 693.171875 1057.101562 691.277344 C 1054.269531 689.378906 1051.472656 687.425781 1048.71875 685.417969 C 1045.964844 683.410156 1043.25 681.347656 1040.578125 679.230469 C 1035.34375 675.125 1030.289062 670.804688 1025.417969 666.269531 C 1020.546875 661.734375 1015.878906 657.003906 1011.410156 652.070312 C 1006.941406 647.140625 1002.6875 642.03125 998.652344 636.738281 C 994.617188 631.445312 990.8125 625.996094 987.242188 620.378906 C 983.667969 614.765625 980.339844 609.011719 977.253906 603.113281 C 974.171875 597.21875 971.339844 591.199219 968.765625 585.0625 C 966.191406 578.925781 963.882812 572.691406 961.839844 566.359375 C 959.792969 560.027344 958.019531 553.621094 956.519531 547.136719 Z M 956.519531 547.136719 " fill-opacity="1" fill-rule="nonzero"/></g></g></g><g clip-path="url(#e030245320)"><g clip-path="url(#659458605d)"><g clip-path="url(#e80cf96213)"><path fill="#e65f07" d="M 503.722656 166.429688 C 499.71875 154.851562 494.988281 143.574219 489.527344 132.609375 C 484.0625 121.640625 477.917969 111.070312 471.085938 100.898438 C 464.257812 90.730469 456.800781 81.039062 448.714844 71.835938 C 440.628906 62.628906 431.984375 53.980469 422.78125 45.894531 C 418.328125 42.011719 413.746094 38.289062 409.035156 34.71875 C 404.328125 31.152344 399.5 27.753906 394.554688 24.519531 C 389.609375 21.285156 384.558594 18.226562 379.402344 15.339844 C 374.246094 12.457031 368.996094 9.753906 363.65625 7.230469 C 358.3125 4.707031 352.890625 2.375 347.386719 0.226562 C 341.882812 -1.921875 336.308594 -3.878906 330.671875 -5.640625 C 325.03125 -7.402344 319.339844 -8.96875 313.589844 -10.339844 C 307.84375 -11.710938 302.058594 -12.878906 296.230469 -13.851562 C 290.402344 -14.820312 284.546875 -15.589844 278.664062 -16.15625 C 272.785156 -16.722656 266.890625 -17.082031 260.984375 -17.242188 C 255.078125 -17.402344 249.175781 -17.355469 243.269531 -17.109375 C 237.367188 -16.859375 231.480469 -16.40625 225.609375 -15.753906 C 219.738281 -15.097656 213.894531 -14.238281 208.082031 -13.179688 C 202.269531 -12.121094 196.5 -10.863281 190.773438 -9.40625 C 185.050781 -7.949219 179.378906 -6.296875 173.769531 -4.449219 C 168.15625 -2.601562 162.617188 -0.5625 157.144531 1.671875 C 145.820312 6.34375 134.84375 11.726562 124.214844 17.820312 C 113.585938 23.914062 103.394531 30.664062 93.636719 38.074219 C 83.878906 45.484375 74.640625 53.488281 65.917969 62.09375 C 57.195312 70.695312 49.0625 79.824219 41.515625 89.476562 C 44.167969 83.566406 47.066406 77.777344 50.210938 72.113281 C 53.355469 66.445312 56.734375 60.925781 60.347656 55.546875 C 63.957031 50.167969 67.792969 44.953125 71.847656 39.898438 C 75.902344 34.84375 80.164062 29.972656 84.636719 25.28125 C 89.105469 20.589844 93.765625 16.097656 98.613281 11.800781 C 103.464844 7.503906 108.488281 3.421875 113.6875 -0.445312 C 118.882812 -4.316406 124.234375 -7.957031 129.742188 -11.371094 C 135.246094 -14.785156 140.886719 -17.960938 146.664062 -20.898438 C 149.617188 -22.417969 152.597656 -23.875 155.609375 -25.277344 C 158.617188 -26.675781 161.65625 -28.015625 164.71875 -29.292969 C 167.78125 -30.570312 170.871094 -31.789062 173.984375 -32.941406 C 177.097656 -34.097656 180.230469 -35.1875 183.386719 -36.21875 C 186.542969 -37.246094 189.71875 -38.210938 192.914062 -39.113281 C 196.109375 -40.015625 199.320312 -40.855469 202.546875 -41.628906 C 205.777344 -42.402344 209.019531 -43.109375 212.277344 -43.753906 C 215.53125 -44.398438 218.800781 -44.976562 222.082031 -45.488281 C 225.359375 -46.003906 228.648438 -46.449219 231.949219 -46.832031 C 235.246094 -47.210938 238.550781 -47.527344 241.859375 -47.777344 C 245.171875 -48.027344 248.484375 -48.207031 251.800781 -48.324219 C 255.121094 -48.441406 258.4375 -48.492188 261.757812 -48.476562 C 265.078125 -48.457031 268.394531 -48.375 271.710938 -48.226562 C 275.027344 -48.078125 278.339844 -47.863281 281.648438 -47.582031 C 284.957031 -47.300781 288.257812 -46.953125 291.550781 -46.539062 C 294.84375 -46.125 298.128906 -45.644531 301.40625 -45.097656 C 304.679688 -44.554688 307.941406 -43.945312 311.191406 -43.269531 C 314.441406 -42.59375 317.679688 -41.851562 320.898438 -41.046875 C 324.117188 -40.242188 327.324219 -39.371094 330.507812 -38.4375 C 333.695312 -37.503906 336.859375 -36.507812 340.003906 -35.449219 C 343.152344 -34.386719 346.273438 -33.265625 349.375 -32.078125 C 352.476562 -30.894531 355.554688 -29.648438 358.605469 -28.339844 C 361.65625 -27.03125 364.679688 -25.664062 367.675781 -24.234375 C 370.671875 -22.804688 373.640625 -21.316406 376.574219 -19.765625 C 379.511719 -18.21875 382.417969 -16.613281 385.289062 -14.949219 C 388.160156 -13.285156 391 -11.5625 393.804688 -9.785156 C 396.605469 -8.007812 399.375 -6.175781 402.105469 -4.285156 C 404.835938 -2.398438 407.527344 -0.457031 410.179688 1.542969 C 412.832031 3.539062 415.441406 5.585938 418.011719 7.6875 C 420.582031 9.789062 423.113281 11.9375 425.597656 14.140625 C 428.082031 16.34375 430.519531 18.59375 432.914062 20.894531 C 435.308594 23.191406 437.65625 25.539062 439.957031 27.933594 C 444.46875 32.582031 448.78125 37.414062 452.882812 42.429688 C 456.988281 47.445312 460.871094 52.625 464.535156 57.96875 C 468.199219 63.3125 471.632812 68.804688 474.832031 74.4375 C 478.03125 80.074219 480.984375 85.835938 483.695312 91.722656 C 486.40625 97.609375 488.863281 103.597656 491.0625 109.695312 C 493.265625 115.789062 495.207031 121.964844 496.882812 128.226562 C 498.5625 134.484375 499.972656 140.804688 501.113281 147.183594 C 502.253906 153.5625 503.125 159.976562 503.722656 166.429688 Z M 503.722656 166.429688 " fill-opacity="1" fill-rule="nonzero"/></g></g></g><g clip-path="url(#60afe025df)"><g clip-path="url(#fda4e75531)"><g clip-path="url(#a6686f275b)"><path fill="#6d9573" d="M 527.542969 -5.507812 C 518.804688 -15.777344 509.445312 -25.441406 499.457031 -34.5 C 489.46875 -43.554688 478.941406 -51.933594 467.867188 -59.625 C 456.796875 -67.320312 445.273438 -74.269531 433.300781 -80.46875 C 421.328125 -86.671875 409.007812 -92.078125 396.335938 -96.683594 C 390.21875 -98.882812 384.03125 -100.867188 377.777344 -102.640625 C 371.519531 -104.410156 365.210938 -105.964844 358.847656 -107.300781 C 352.484375 -108.636719 346.082031 -109.753906 339.644531 -110.648438 C 333.203125 -111.542969 326.742188 -112.214844 320.253906 -112.660156 C 313.769531 -113.109375 307.273438 -113.332031 300.773438 -113.332031 C 294.269531 -113.332031 287.777344 -113.105469 281.292969 -112.65625 C 274.804688 -112.207031 268.34375 -111.535156 261.902344 -110.640625 C 255.460938 -109.746094 249.0625 -108.628906 242.699219 -107.292969 C 236.335938 -105.957031 230.027344 -104.398438 223.773438 -102.628906 C 217.515625 -100.855469 211.328125 -98.867188 205.210938 -96.667969 C 199.09375 -94.46875 193.058594 -92.058594 187.105469 -89.441406 C 181.15625 -86.824219 175.300781 -84.003906 169.542969 -80.984375 C 163.785156 -77.960938 158.140625 -74.746094 152.605469 -71.335938 C 147.070312 -67.925781 141.660156 -64.328125 136.371094 -60.542969 C 131.085938 -56.757812 125.9375 -52.792969 120.925781 -48.652344 C 115.910156 -44.511719 111.046875 -40.203125 106.332031 -35.730469 C 96.59375 -26.40625 87.496094 -16.496094 79.035156 -5.996094 C 70.578125 4.503906 62.828125 15.503906 55.792969 27 C 48.753906 38.5 42.488281 50.40625 36.988281 62.714844 C 31.488281 75.023438 26.804688 87.636719 22.933594 100.550781 C 23.285156 93.429688 23.941406 86.335938 24.898438 79.269531 C 25.851562 72.207031 27.105469 65.191406 28.65625 58.234375 C 30.207031 51.273438 32.050781 44.394531 34.1875 37.589844 C 36.324219 30.789062 38.742188 24.085938 41.445312 17.492188 C 44.152344 10.894531 47.128906 4.421875 50.382812 -1.921875 C 53.636719 -8.265625 57.152344 -14.460938 60.933594 -20.507812 C 64.710938 -26.554688 68.742188 -32.429688 73.019531 -38.132812 C 77.296875 -43.835938 81.808594 -49.347656 86.554688 -54.667969 C 88.976562 -57.40625 91.445312 -60.097656 93.972656 -62.738281 C 96.5 -65.375 99.074219 -67.964844 101.707031 -70.5 C 104.335938 -73.035156 107.015625 -75.519531 109.742188 -77.949219 C 112.472656 -80.378906 115.246094 -82.75 118.070312 -85.070312 C 120.894531 -87.386719 123.765625 -89.648438 126.679688 -91.851562 C 129.59375 -94.054688 132.550781 -96.199219 135.550781 -98.28125 C 138.550781 -100.367188 141.589844 -102.390625 144.671875 -104.355469 C 147.75 -106.316406 150.871094 -108.21875 154.027344 -110.054688 C 157.183594 -111.894531 160.378906 -113.667969 163.605469 -115.378906 C 166.832031 -117.089844 170.09375 -118.734375 173.386719 -120.316406 C 176.683594 -121.894531 180.007812 -123.410156 183.359375 -124.855469 C 186.714844 -126.304688 190.097656 -127.683594 193.507812 -128.992188 C 196.917969 -130.304688 200.351562 -131.546875 203.8125 -132.722656 C 207.269531 -133.898438 210.753906 -135 214.253906 -136.035156 C 217.757812 -137.070312 221.28125 -138.035156 224.824219 -138.929688 C 228.367188 -139.824219 231.925781 -140.644531 235.5 -141.398438 C 239.074219 -142.148438 242.664062 -142.828125 246.265625 -143.4375 C 249.871094 -144.042969 253.480469 -144.578125 257.105469 -145.042969 C 260.730469 -145.503906 264.363281 -145.894531 268 -146.214844 C 271.640625 -146.53125 275.285156 -146.777344 278.933594 -146.949219 C 282.582031 -147.121094 286.234375 -147.21875 289.886719 -147.246094 C 293.539062 -147.273438 297.191406 -147.222656 300.84375 -147.105469 C 304.496094 -146.984375 308.144531 -146.789062 311.785156 -146.523438 C 315.429688 -146.257812 319.066406 -145.917969 322.695312 -145.507812 C 326.328125 -145.097656 329.945312 -144.613281 333.558594 -144.054688 C 337.167969 -143.5 340.765625 -142.871094 344.351562 -142.167969 C 347.9375 -141.46875 351.507812 -140.695312 355.0625 -139.851562 C 358.617188 -139.007812 362.152344 -138.09375 365.671875 -137.109375 C 369.1875 -136.125 372.683594 -135.070312 376.160156 -133.945312 C 379.636719 -132.820312 383.089844 -131.625 386.515625 -130.363281 C 389.945312 -129.097656 393.347656 -127.769531 396.71875 -126.367188 C 400.09375 -124.96875 403.441406 -123.503906 406.757812 -121.96875 C 413.246094 -119.011719 419.59375 -115.78125 425.808594 -112.28125 C 432.023438 -108.78125 438.078125 -105.027344 443.972656 -101.015625 C 449.867188 -97.003906 455.582031 -92.746094 461.117188 -88.25 C 466.652344 -83.753906 471.984375 -79.027344 477.121094 -74.078125 C 482.253906 -69.128906 487.167969 -63.972656 491.863281 -58.605469 C 496.558594 -53.238281 501.019531 -47.679688 505.246094 -41.9375 C 509.46875 -36.191406 513.441406 -30.277344 517.167969 -24.195312 C 520.890625 -18.113281 524.347656 -11.882812 527.542969 -5.507812 Z M 527.542969 -5.507812 " fill-opacity="1" fill-rule="nonzero"/></g></g></g><g clip-path="url(#9afdedf65f)"><path fill="#ffffff" d="M 618.421875 214.207031 L 301.441406 214.207031 L 301.441406 49.203125 C 301.441406 -38.332031 372.394531 -109.285156 459.933594 -109.285156 C 547.46875 -109.285156 618.421875 -38.332031 618.421875 49.203125 Z M 618.421875 214.207031 " fill-opacity="1" fill-rule="nonzero"/></g><g clip-path="url(#38b1ab414f)"><path fill="#ffffff" d="M 1263.765625 832.65625 L 738.011719 832.65625 L 738.011719 558.980469 C 738.011719 413.789062 855.699219 296.105469 1000.890625 296.105469 C 1146.082031 296.105469 1263.765625 413.789062 1263.765625 558.980469 Z M 1263.765625 832.65625 " fill-opacity="1" fill-rule="nonzero"/></g><g clip-path="url(#60f52e79db)"><path fill="#e65f07" d="M 1558.289062 763.007812 C 1553.429688 754.070312 1548.019531 745.480469 1542.046875 737.242188 C 1536.078125 729 1529.601562 721.183594 1522.621094 713.78125 C 1515.640625 706.382812 1508.207031 699.460938 1500.332031 693.023438 C 1492.453125 686.585938 1484.191406 680.683594 1475.550781 675.316406 C 1471.375 672.742188 1467.113281 670.3125 1462.769531 668.035156 C 1458.421875 665.753906 1454.003906 663.628906 1449.515625 661.652344 C 1445.023438 659.679688 1440.46875 657.863281 1435.851562 656.203125 C 1431.234375 654.542969 1426.566406 653.042969 1421.847656 651.707031 C 1417.125 650.367188 1412.363281 649.195312 1407.5625 648.1875 C 1402.761719 647.179688 1397.933594 646.335938 1393.074219 645.660156 C 1388.214844 644.984375 1383.335938 644.480469 1378.441406 644.140625 C 1373.546875 643.800781 1368.648438 643.632812 1363.742188 643.632812 C 1358.835938 643.632812 1353.933594 643.800781 1349.039062 644.140625 C 1344.144531 644.480469 1339.269531 644.984375 1334.410156 645.660156 C 1329.550781 646.335938 1324.71875 647.179688 1319.917969 648.1875 C 1315.117188 649.195312 1310.355469 650.367188 1305.636719 651.707031 C 1300.914062 653.042969 1296.246094 654.542969 1291.628906 656.203125 C 1287.011719 657.863281 1282.457031 659.679688 1277.96875 661.652344 C 1273.476562 663.628906 1269.058594 665.753906 1264.714844 668.035156 C 1260.367188 670.3125 1256.109375 672.742188 1251.929688 675.316406 C 1243.292969 680.6875 1235.035156 686.59375 1227.160156 693.035156 C 1219.285156 699.476562 1211.855469 706.394531 1204.875 713.792969 C 1197.890625 721.195312 1191.414062 729.011719 1185.441406 737.25 C 1179.472656 745.484375 1174.054688 754.070312 1169.191406 763.007812 C 1170.558594 757.804688 1172.144531 752.667969 1173.945312 747.597656 C 1175.746094 742.527344 1177.761719 737.542969 1179.988281 732.644531 C 1182.214844 727.75 1184.640625 722.953125 1187.273438 718.261719 C 1189.90625 713.570312 1192.734375 708.996094 1195.753906 704.542969 C 1198.777344 700.09375 1201.980469 695.777344 1205.367188 691.59375 C 1208.753906 687.414062 1212.3125 683.386719 1216.042969 679.507812 C 1219.773438 675.628906 1223.660156 671.917969 1227.703125 668.367188 C 1231.75 664.820312 1235.9375 661.449219 1240.269531 658.257812 C 1242.480469 656.609375 1244.722656 655.007812 1246.996094 653.453125 C 1249.269531 651.894531 1251.578125 650.382812 1253.910156 648.917969 C 1256.246094 647.453125 1258.609375 646.035156 1261.003906 644.667969 C 1263.394531 643.296875 1265.8125 641.972656 1268.257812 640.699219 C 1270.703125 639.425781 1273.171875 638.203125 1275.667969 637.027344 C 1278.160156 635.855469 1280.675781 634.730469 1283.214844 633.65625 C 1285.753906 632.582031 1288.316406 631.558594 1290.894531 630.589844 C 1293.472656 629.617188 1296.074219 628.695312 1298.691406 627.828125 C 1301.304688 626.960938 1303.9375 626.148438 1306.589844 625.386719 C 1309.238281 624.621094 1311.902344 623.914062 1314.578125 623.257812 C 1317.257812 622.601562 1319.945312 622 1322.648438 621.453125 C 1325.351562 620.90625 1328.0625 620.410156 1330.78125 619.972656 C 1333.503906 619.535156 1336.234375 619.148438 1338.972656 618.820312 C 1341.707031 618.488281 1344.449219 618.214844 1347.199219 617.992188 C 1349.945312 617.773438 1352.695312 617.605469 1355.453125 617.496094 C 1358.207031 617.386719 1360.960938 617.332031 1363.71875 617.332031 C 1366.476562 617.332031 1369.230469 617.386719 1371.984375 617.496094 C 1374.738281 617.605469 1377.492188 617.773438 1380.238281 617.992188 C 1382.988281 618.214844 1385.730469 618.488281 1388.464844 618.820312 C 1391.203125 619.148438 1393.933594 619.535156 1396.652344 619.972656 C 1399.375 620.410156 1402.085938 620.90625 1404.789062 621.453125 C 1407.492188 622 1410.179688 622.601562 1412.859375 623.257812 C 1415.535156 623.914062 1418.199219 624.621094 1420.847656 625.386719 C 1423.496094 626.148438 1426.132812 626.960938 1428.746094 627.828125 C 1431.363281 628.695312 1433.960938 629.617188 1436.542969 630.589844 C 1439.121094 631.558594 1441.683594 632.582031 1444.222656 633.65625 C 1446.761719 634.730469 1449.277344 635.855469 1451.769531 637.027344 C 1454.265625 638.203125 1456.734375 639.425781 1459.179688 640.699219 C 1461.625 641.972656 1464.042969 643.296875 1466.433594 644.667969 C 1468.828125 646.035156 1471.191406 647.453125 1473.527344 648.917969 C 1475.859375 650.382812 1478.167969 651.894531 1480.441406 653.453125 C 1482.714844 655.007812 1484.957031 656.609375 1487.167969 658.257812 C 1491.5 661.449219 1495.691406 664.820312 1499.734375 668.371094 C 1503.78125 671.917969 1507.667969 675.632812 1511.398438 679.507812 C 1515.128906 683.386719 1518.691406 687.417969 1522.078125 691.597656 C 1525.46875 695.777344 1528.671875 700.09375 1531.695312 704.546875 C 1534.71875 708.996094 1537.546875 713.570312 1540.183594 718.261719 C 1542.816406 722.953125 1545.25 727.75 1547.476562 732.648438 C 1549.707031 737.542969 1551.722656 742.527344 1553.527344 747.597656 C 1555.332031 752.667969 1556.917969 757.804688 1558.289062 763.007812 Z M 1558.289062 763.007812 " fill-opacity="1" fill-rule="nonzero"/></g></svg>