<svg xmlns="http://www.w3.org/2000/svg" xmlns:xlink="http://www.w3.org/1999/xlink" width="1920" zoomAndPan="magnify" viewBox="0 0 1440 809.999993" height="1080" preserveAspectRatio="xMidYMid meet" version="1.0"><defs><clipPath id="c6388396f5"><path d="M 0 0 L 183 0 L 183 83 L 0 83 Z M 0 0 " clip-rule="nonzero"/></clipPath><clipPath id="949ad632c6"><path d="M 277.074219 -255.078125 L 62.328125 166.644531 L -108.765625 79.519531 L 105.980469 -342.203125 Z M 277.074219 -255.078125 " clip-rule="nonzero"/></clipPath><clipPath id="b3c70bd60d"><path d="M 277.074219 -255.078125 L 62.328125 166.644531 L -108.765625 79.519531 L 105.980469 -342.203125 Z M 277.074219 -255.078125 " clip-rule="nonzero"/></clipPath><clipPath id="c18c2aa118"><path d="M 0 0 L 159 0 L 159 58 L 0 58 Z M 0 0 " clip-rule="nonzero"/></clipPath><clipPath id="54052d91dd"><path d="M 262.511719 -259.015625 L 5.398438 153.402344 L -161.351562 49.449219 L 95.761719 -362.972656 Z M 262.511719 -259.015625 " clip-rule="nonzero"/></clipPath><clipPath id="a12a2a92cb"><path d="M 262.511719 -259.015625 L 5.398438 153.402344 L -161.351562 49.449219 L 95.761719 -362.972656 Z M 262.511719 -259.015625 " clip-rule="nonzero"/></clipPath><clipPath id="6303f0e2be"><path d="M 1223 324 L 1440 324 L 1440 689 L 1223 689 Z M 1223 324 " clip-rule="nonzero"/></clipPath><clipPath id="6d35a3649d"><path d="M 1116.898438 555.265625 L 1449.46875 218.574219 L 1586.066406 353.5 L 1253.496094 690.191406 Z M 1116.898438 555.265625 " clip-rule="nonzero"/></clipPath><clipPath id="3cc5946312"><path d="M 1116.898438 555.265625 L 1449.46875 218.574219 L 1586.066406 353.5 L 1253.496094 690.191406 Z M 1116.898438 555.265625 " clip-rule="nonzero"/></clipPath><clipPath id="e29e06122f"><path d="M 1235 357 L 1440 357 L 1440 712 L 1235 712 Z M 1235 357 " clip-rule="nonzero"/></clipPath><clipPath id="9afc5dcbcf"><path d="M 1129.578125 563.441406 L 1499.695312 248.464844 L 1627.046875 398.109375 L 1256.929688 713.085938 Z M 1129.578125 563.441406 " clip-rule="nonzero"/></clipPath><clipPath id="c4b2ddd1a8"><path d="M 1129.578125 563.441406 L 1499.695312 248.464844 L 1627.046875 398.109375 L 1256.929688 713.085938 Z M 1129.578125 563.441406 " clip-rule="nonzero"/></clipPath></defs><g clip-path="url(#c6388396f5)"><g clip-path="url(#949ad632c6)"><g clip-path="url(#b3c70bd60d)"><path fill="#e65f07" d="M -107.554688 77.632812 C -95.308594 77.304688 -83.132812 76.191406 -71.03125 74.285156 C -58.925781 72.382812 -46.996094 69.707031 -35.238281 66.257812 C -23.484375 62.808594 -12 58.617188 -0.785156 53.679688 C 10.429688 48.742188 21.277344 43.105469 31.761719 36.765625 C 36.804688 33.6875 41.738281 30.441406 46.558594 27.027344 C 51.378906 23.609375 56.074219 20.03125 60.648438 16.289062 C 65.222656 12.550781 69.660156 8.65625 73.964844 4.609375 C 78.269531 0.558594 82.429688 -3.628906 86.441406 -7.964844 C 90.457031 -12.300781 94.316406 -16.769531 98.023438 -21.367188 C 101.730469 -25.96875 105.273438 -30.695312 108.652344 -35.539062 C 112.035156 -40.386719 115.242188 -45.34375 118.28125 -50.410156 C 121.316406 -55.476562 124.175781 -60.644531 126.859375 -65.90625 C 129.539062 -71.171875 132.035156 -76.523438 134.347656 -81.960938 C 136.65625 -87.398438 138.777344 -92.910156 140.710938 -98.492188 C 142.640625 -104.078125 144.378906 -109.71875 145.917969 -115.425781 C 147.460938 -121.128906 148.800781 -126.878906 149.945312 -132.675781 C 151.089844 -138.46875 152.03125 -144.300781 152.773438 -150.160156 C 153.515625 -156.023438 154.054688 -161.902344 154.390625 -167.800781 C 154.726562 -173.699219 154.859375 -179.601562 154.785156 -185.511719 C 154.714844 -191.417969 154.4375 -197.316406 153.957031 -203.207031 C 152.914062 -215.414062 151.085938 -227.5 148.480469 -239.472656 C 145.871094 -251.441406 142.503906 -263.195312 138.378906 -274.730469 C 134.253906 -286.265625 129.402344 -297.488281 123.828125 -308.398438 C 118.25 -319.308594 111.996094 -329.8125 105.066406 -339.914062 C 109.902344 -335.605469 114.550781 -331.097656 119.003906 -326.394531 C 123.460938 -321.6875 127.707031 -316.804688 131.746094 -311.738281 C 135.789062 -306.671875 139.605469 -301.445312 143.203125 -296.058594 C 146.800781 -290.667969 150.160156 -285.136719 153.289062 -279.460938 C 156.414062 -273.785156 159.296875 -267.988281 161.929688 -262.070312 C 164.566406 -256.152344 166.945312 -250.128906 169.070312 -244.007812 C 171.191406 -237.886719 173.054688 -231.6875 174.648438 -225.40625 C 176.246094 -219.128906 177.574219 -212.792969 178.636719 -206.402344 C 179.195312 -203.128906 179.6875 -199.847656 180.117188 -196.554688 C 180.542969 -193.261719 180.90625 -189.964844 181.203125 -186.65625 C 181.496094 -183.351562 181.726562 -180.039062 181.890625 -176.722656 C 182.054688 -173.40625 182.148438 -170.089844 182.179688 -166.769531 C 182.210938 -163.449219 182.175781 -160.132812 182.074219 -156.8125 C 181.96875 -153.496094 181.800781 -150.179688 181.566406 -146.867188 C 181.332031 -143.558594 181.03125 -140.25 180.664062 -136.953125 C 180.296875 -133.652344 179.863281 -130.363281 179.363281 -127.078125 C 178.867188 -123.796875 178.300781 -120.527344 177.671875 -117.265625 C 177.042969 -114.007812 176.347656 -110.761719 175.585938 -107.53125 C 174.828125 -104.300781 174.003906 -101.082031 173.113281 -97.886719 C 172.226562 -94.6875 171.273438 -91.507812 170.257812 -88.347656 C 169.242188 -85.1875 168.164062 -82.046875 167.023438 -78.929688 C 165.882812 -75.8125 164.679688 -72.71875 163.414062 -69.648438 C 162.148438 -66.578125 160.820312 -63.535156 159.433594 -60.519531 C 158.046875 -57.503906 156.601562 -54.515625 155.09375 -51.558594 C 153.589844 -48.601562 152.023438 -45.671875 150.398438 -42.777344 C 148.777344 -39.882812 147.097656 -37.019531 145.359375 -34.191406 C 143.621094 -31.363281 141.824219 -28.570312 139.976562 -25.8125 C 138.125 -23.058594 136.222656 -20.339844 134.261719 -17.660156 C 132.304688 -14.976562 130.292969 -12.339844 128.230469 -9.738281 C 126.164062 -7.136719 124.050781 -4.582031 121.882812 -2.066406 C 119.714844 0.449219 117.5 2.921875 115.234375 5.347656 C 112.96875 7.773438 110.65625 10.15625 108.292969 12.488281 C 105.933594 14.824219 103.527344 17.109375 101.074219 19.347656 C 98.621094 21.582031 96.125 23.769531 93.585938 25.910156 C 91.046875 28.046875 88.464844 30.132812 85.839844 32.167969 C 83.21875 34.203125 80.554688 36.183594 77.851562 38.109375 C 75.148438 40.039062 72.410156 41.910156 69.632812 43.730469 C 66.855469 45.546875 64.042969 47.308594 61.195312 49.015625 C 58.34375 50.722656 55.464844 52.371094 52.550781 53.960938 C 49.636719 55.550781 46.691406 57.082031 43.714844 58.554688 C 37.921875 61.457031 32.015625 64.109375 26 66.511719 C 19.980469 68.917969 13.871094 71.058594 7.671875 72.945312 C 1.46875 74.828125 -4.796875 76.445312 -11.136719 77.800781 C -17.472656 79.152344 -23.855469 80.234375 -30.285156 81.042969 C -36.714844 81.855469 -43.167969 82.390625 -49.644531 82.65625 C -56.117188 82.917969 -62.59375 82.910156 -69.066406 82.621094 C -75.539062 82.335938 -81.992188 81.777344 -88.417969 80.945312 C -94.84375 80.113281 -101.222656 79.007812 -107.554688 77.632812 Z M -107.554688 77.632812 " fill-opacity="1" fill-rule="nonzero"/></g></g></g><g clip-path="url(#c18c2aa118)"><g clip-path="url(#54052d91dd)"><g clip-path="url(#a12a2a92cb)"><path fill="#6d9573" d="M -160.496094 47.253906 C -147.9375 48.007812 -135.382812 47.945312 -122.832031 47.070312 C -110.28125 46.195312 -97.835938 44.515625 -85.503906 42.03125 C -73.171875 39.542969 -61.046875 36.273438 -49.136719 32.21875 C -37.226562 28.164062 -25.628906 23.355469 -14.339844 17.800781 C -8.90625 15.097656 -3.574219 12.214844 1.660156 9.148438 C 6.894531 6.082031 12.015625 2.835938 17.027344 -0.585938 C 22.039062 -4.007812 26.925781 -7.597656 31.6875 -11.355469 C 36.449219 -15.117188 41.078125 -19.035156 45.566406 -23.113281 C 50.058594 -27.191406 54.40625 -31.421875 58.605469 -35.800781 C 62.804688 -40.179688 66.847656 -44.695312 70.734375 -49.355469 C 74.625 -54.011719 78.347656 -58.796875 81.902344 -63.714844 C 85.460938 -68.628906 88.84375 -73.660156 92.054688 -78.808594 C 95.265625 -83.957031 98.292969 -89.210938 101.140625 -94.566406 C 103.984375 -99.925781 106.644531 -105.375 109.117188 -110.917969 C 111.585938 -116.457031 113.863281 -122.078125 115.945312 -127.777344 C 118.027344 -133.476562 119.910156 -139.238281 121.597656 -145.066406 C 123.28125 -150.894531 124.761719 -156.773438 126.039062 -162.707031 C 127.320312 -168.636719 128.390625 -174.605469 129.257812 -180.609375 C 130.125 -186.613281 130.78125 -192.640625 131.234375 -198.691406 C 131.683594 -204.742188 131.925781 -210.800781 131.957031 -216.867188 C 131.96875 -229.449219 131.171875 -241.980469 129.566406 -254.457031 C 127.960938 -266.9375 125.558594 -279.257812 122.359375 -291.425781 C 119.164062 -303.59375 115.195312 -315.503906 110.457031 -327.160156 C 105.722656 -338.816406 100.253906 -350.117188 94.058594 -361.066406 C 98.625 -356.230469 102.980469 -351.207031 107.121094 -345.996094 C 111.261719 -340.789062 115.171875 -335.414062 118.859375 -329.875 C 122.542969 -324.335938 125.984375 -318.648438 129.1875 -312.816406 C 132.386719 -306.984375 135.335938 -301.027344 138.03125 -294.941406 C 140.730469 -288.859375 143.160156 -282.671875 145.332031 -276.382812 C 147.503906 -270.09375 149.402344 -263.722656 151.035156 -257.273438 C 152.664062 -250.824219 154.015625 -244.3125 155.09375 -237.75 C 156.171875 -231.183594 156.96875 -224.582031 157.484375 -217.949219 C 157.765625 -214.550781 157.980469 -211.152344 158.125 -207.746094 C 158.273438 -204.339844 158.351562 -200.929688 158.359375 -197.523438 C 158.367188 -194.113281 158.308594 -190.707031 158.183594 -187.296875 C 158.054688 -183.890625 157.859375 -180.488281 157.597656 -177.089844 C 157.335938 -173.691406 157.003906 -170.296875 156.605469 -166.914062 C 156.207031 -163.527344 155.738281 -160.152344 155.203125 -156.785156 C 154.671875 -153.417969 154.070312 -150.0625 153.402344 -146.71875 C 152.734375 -143.375 151.996094 -140.046875 151.195312 -136.734375 C 150.394531 -133.421875 149.527344 -130.125 148.59375 -126.847656 C 147.660156 -123.566406 146.660156 -120.308594 145.597656 -117.070312 C 144.535156 -113.832031 143.40625 -110.613281 142.214844 -107.421875 C 141.019531 -104.226562 139.765625 -101.058594 138.445312 -97.914062 C 137.125 -94.773438 135.742188 -91.65625 134.300781 -88.566406 C 132.855469 -85.480469 131.351562 -82.421875 129.785156 -79.394531 C 128.21875 -76.367188 126.589844 -73.371094 124.90625 -70.40625 C 123.21875 -67.445312 121.472656 -64.515625 119.671875 -61.625 C 117.867188 -58.730469 116.007812 -55.875 114.089844 -53.058594 C 112.171875 -50.238281 110.195312 -47.460938 108.167969 -44.71875 C 106.140625 -41.980469 104.054688 -39.28125 101.917969 -36.625 C 99.78125 -33.96875 97.59375 -31.359375 95.351562 -28.789062 C 93.109375 -26.21875 90.816406 -23.699219 88.476562 -21.222656 C 86.132812 -18.746094 83.742188 -16.316406 81.300781 -13.933594 C 78.863281 -11.554688 76.375 -9.222656 73.84375 -6.941406 C 71.308594 -4.660156 68.730469 -2.429688 66.109375 -0.25 C 63.488281 1.929688 60.824219 4.054688 58.113281 6.125 C 55.40625 8.195312 52.660156 10.214844 49.871094 12.175781 C 47.085938 14.136719 44.257812 16.042969 41.394531 17.890625 C 38.53125 19.742188 35.628906 21.53125 32.691406 23.265625 C 29.757812 24.996094 26.789062 26.667969 23.785156 28.285156 C 20.78125 29.898438 17.75 31.449219 14.683594 32.941406 C 11.617188 34.433594 8.523438 35.867188 5.402344 37.234375 C 2.28125 38.601562 -0.867188 39.910156 -4.042969 41.152344 C -10.226562 43.609375 -16.503906 45.796875 -22.875 47.722656 C -29.246094 49.648438 -35.6875 51.296875 -42.195312 52.675781 C -48.707031 54.054688 -55.265625 55.152344 -61.867188 55.976562 C -68.472656 56.796875 -75.097656 57.335938 -81.746094 57.597656 C -88.398438 57.855469 -95.046875 57.832031 -101.695312 57.527344 C -108.339844 57.222656 -114.964844 56.640625 -121.5625 55.773438 C -128.160156 54.90625 -134.710938 53.761719 -141.210938 52.339844 C -147.710938 50.917969 -154.140625 49.222656 -160.496094 47.253906 Z M -160.496094 47.253906 " fill-opacity="1" fill-rule="nonzero"/></g></g></g><g clip-path="url(#6303f0e2be)"><g clip-path="url(#6d35a3649d)"><g clip-path="url(#3cc5946312)"><path fill="#e65f07" d="M 1584.339844 354.929688 C 1572.570312 351.527344 1560.628906 348.898438 1548.519531 347.039062 C 1536.410156 345.179688 1524.230469 344.113281 1511.980469 343.832031 C 1499.730469 343.550781 1487.515625 344.0625 1475.332031 345.363281 C 1463.152344 346.664062 1451.101562 348.746094 1439.191406 351.605469 C 1433.449219 353.007812 1427.765625 354.601562 1422.136719 356.394531 C 1416.507812 358.1875 1410.945312 360.175781 1405.453125 362.351562 C 1399.960938 364.527344 1394.550781 366.890625 1389.21875 369.441406 C 1383.890625 371.992188 1378.65625 374.726562 1373.515625 377.636719 C 1368.375 380.550781 1363.339844 383.636719 1358.414062 386.894531 C 1353.484375 390.15625 1348.675781 393.582031 1343.984375 397.175781 C 1339.292969 400.765625 1334.734375 404.515625 1330.300781 408.421875 C 1325.871094 412.328125 1321.578125 416.382812 1317.425781 420.589844 C 1313.273438 424.792969 1309.273438 429.132812 1305.417969 433.613281 C 1301.566406 438.09375 1297.875 442.699219 1294.339844 447.433594 C 1290.804688 452.167969 1287.441406 457.019531 1284.242188 461.988281 C 1281.042969 466.953125 1278.019531 472.027344 1275.167969 477.203125 C 1272.320312 482.378906 1269.652344 487.644531 1267.167969 493.007812 C 1264.683594 498.367188 1262.386719 503.804688 1260.277344 509.324219 C 1258.167969 514.84375 1256.25 520.429688 1254.527344 526.082031 C 1252.804688 531.730469 1251.277344 537.433594 1249.949219 543.191406 C 1247.242188 555.140625 1245.3125 567.214844 1244.167969 579.410156 C 1243.019531 591.609375 1242.660156 603.828125 1243.09375 616.074219 C 1243.523438 628.316406 1244.742188 640.480469 1246.742188 652.570312 C 1248.746094 664.65625 1251.519531 676.5625 1255.058594 688.292969 C 1251.757812 682.714844 1248.699219 677.011719 1245.878906 671.179688 C 1243.0625 665.34375 1240.496094 659.398438 1238.183594 653.347656 C 1235.871094 647.296875 1233.816406 641.15625 1232.027344 634.929688 C 1230.234375 628.703125 1228.707031 622.414062 1227.449219 616.054688 C 1226.191406 609.699219 1225.207031 603.300781 1224.492188 596.863281 C 1223.777344 590.421875 1223.335938 583.964844 1223.171875 577.488281 C 1223.003906 571.011719 1223.113281 564.539062 1223.496094 558.070312 C 1223.878906 551.601562 1224.535156 545.164062 1225.464844 538.75 C 1225.925781 535.460938 1226.449219 532.183594 1227.042969 528.917969 C 1227.632812 525.652344 1228.289062 522.398438 1229.011719 519.15625 C 1229.730469 515.917969 1230.515625 512.691406 1231.367188 509.484375 C 1232.21875 506.273438 1233.132812 503.082031 1234.109375 499.910156 C 1235.089844 496.738281 1236.128906 493.585938 1237.234375 490.457031 C 1238.335938 487.324219 1239.503906 484.21875 1240.734375 481.132812 C 1241.960938 478.050781 1243.25 474.992188 1244.601562 471.960938 C 1245.953125 468.925781 1247.363281 465.921875 1248.835938 462.945312 C 1250.304688 459.96875 1251.835938 457.023438 1253.425781 454.109375 C 1255.015625 451.195312 1256.660156 448.3125 1258.367188 445.464844 C 1260.070312 442.617188 1261.832031 439.800781 1263.648438 437.023438 C 1265.464844 434.246094 1267.335938 431.503906 1269.261719 428.800781 C 1271.191406 426.097656 1273.171875 423.433594 1275.203125 420.808594 C 1277.238281 418.183594 1279.320312 415.601562 1281.457031 413.0625 C 1283.59375 410.519531 1285.78125 408.023438 1288.019531 405.570312 C 1290.253906 403.117188 1292.539062 400.710938 1294.871094 398.347656 C 1297.207031 395.984375 1299.585938 393.671875 1302.011719 391.40625 C 1304.4375 389.140625 1306.90625 386.921875 1309.421875 384.753906 C 1311.933594 382.585938 1314.492188 380.46875 1317.089844 378.402344 C 1319.6875 376.339844 1322.328125 374.324219 1325.007812 372.367188 C 1327.6875 370.40625 1330.40625 368.5 1333.160156 366.648438 C 1335.917969 364.796875 1338.707031 363.003906 1341.535156 361.265625 C 1344.363281 359.523438 1347.226562 357.84375 1350.121094 356.21875 C 1353.015625 354.59375 1355.941406 353.027344 1358.898438 351.519531 C 1361.855469 350.011719 1364.84375 348.5625 1367.859375 347.175781 C 1370.875 345.785156 1373.917969 344.460938 1376.984375 343.191406 C 1380.054688 341.925781 1383.148438 340.722656 1386.265625 339.578125 C 1389.382812 338.4375 1392.519531 337.355469 1395.679688 336.339844 C 1398.839844 335.324219 1402.019531 334.367188 1405.21875 333.480469 C 1408.414062 332.589844 1411.628906 331.765625 1414.863281 331.003906 C 1418.09375 330.242188 1421.339844 329.546875 1424.597656 328.914062 C 1427.855469 328.28125 1431.128906 327.714844 1434.410156 327.214844 C 1440.8125 326.207031 1447.242188 325.472656 1453.707031 325.007812 C 1460.171875 324.542969 1466.640625 324.355469 1473.121094 324.441406 C 1479.601562 324.527344 1486.066406 324.886719 1492.515625 325.519531 C 1498.964844 326.15625 1505.375 327.0625 1511.746094 328.238281 C 1518.121094 329.417969 1524.429688 330.863281 1530.679688 332.574219 C 1536.929688 334.289062 1543.097656 336.265625 1549.179688 338.5 C 1555.261719 340.738281 1561.238281 343.226562 1567.109375 345.96875 C 1572.980469 348.714844 1578.722656 351.699219 1584.339844 354.929688 Z M 1584.339844 354.929688 " fill-opacity="1" fill-rule="nonzero"/></g></g></g><g clip-path="url(#e29e06122f)"><g clip-path="url(#9afc5dcbcf)"><g clip-path="url(#c4b2ddd1a8)"><path fill="#6d9573" d="M 1625.570312 399.941406 C 1613.832031 395.414062 1601.847656 391.664062 1589.621094 388.691406 C 1577.398438 385.714844 1565.03125 383.542969 1552.527344 382.167969 C 1540.019531 380.796875 1527.476562 380.234375 1514.898438 380.484375 C 1502.316406 380.734375 1489.808594 381.796875 1477.367188 383.667969 C 1471.367188 384.589844 1465.410156 385.71875 1459.492188 387.054688 C 1453.574219 388.390625 1447.710938 389.929688 1441.898438 391.667969 C 1436.085938 393.410156 1430.339844 395.347656 1424.660156 397.484375 C 1418.984375 399.621094 1413.386719 401.953125 1407.867188 404.476562 C 1402.351562 407 1396.925781 409.710938 1391.597656 412.609375 C 1386.265625 415.503906 1381.042969 418.585938 1375.925781 421.84375 C 1370.808594 425.101562 1365.808594 428.535156 1360.925781 432.136719 C 1356.046875 435.742188 1351.296875 439.507812 1346.675781 443.441406 C 1342.054688 447.375 1337.574219 451.460938 1333.238281 455.703125 C 1328.898438 459.941406 1324.710938 464.328125 1320.675781 468.859375 C 1316.640625 473.390625 1312.765625 478.054688 1309.054688 482.851562 C 1305.339844 487.652344 1301.796875 492.570312 1298.421875 497.613281 C 1295.050781 502.65625 1291.855469 507.808594 1288.835938 513.074219 C 1285.820312 518.335938 1282.988281 523.699219 1280.339844 529.15625 C 1277.691406 534.617188 1275.234375 540.160156 1272.972656 545.789062 C 1270.707031 551.417969 1268.640625 557.117188 1266.769531 562.890625 C 1262.9375 574.875 1259.898438 587.054688 1257.640625 599.429688 C 1255.386719 611.808594 1253.933594 624.277344 1253.289062 636.84375 C 1252.644531 649.40625 1252.8125 661.960938 1253.789062 674.503906 C 1254.765625 687.046875 1256.546875 699.476562 1259.128906 711.789062 C 1256.246094 705.792969 1253.621094 699.683594 1251.257812 693.464844 C 1248.890625 687.246094 1246.792969 680.9375 1244.964844 674.542969 C 1243.132812 668.144531 1241.578125 661.683594 1240.296875 655.152344 C 1239.015625 648.625 1238.011719 642.054688 1237.289062 635.4375 C 1236.566406 628.824219 1236.125 622.191406 1235.964844 615.539062 C 1235.804688 608.886719 1235.925781 602.242188 1236.332031 595.601562 C 1236.734375 588.960938 1237.421875 582.347656 1238.386719 575.765625 C 1239.351562 569.179688 1240.59375 562.652344 1242.113281 556.171875 C 1242.875 552.851562 1243.703125 549.542969 1244.597656 546.253906 C 1245.492188 542.964844 1246.453125 539.695312 1247.480469 536.445312 C 1248.503906 533.191406 1249.59375 529.960938 1250.75 526.753906 C 1251.902344 523.546875 1253.121094 520.363281 1254.402344 517.207031 C 1255.683594 514.046875 1257.03125 510.914062 1258.4375 507.808594 C 1259.84375 504.703125 1261.3125 501.628906 1262.84375 498.582031 C 1264.375 495.535156 1265.964844 492.523438 1267.617188 489.539062 C 1269.265625 486.554688 1270.976562 483.609375 1272.746094 480.695312 C 1274.515625 477.78125 1276.34375 474.902344 1278.226562 472.0625 C 1280.109375 469.21875 1282.050781 466.417969 1284.046875 463.65625 C 1286.042969 460.890625 1288.09375 458.167969 1290.199219 455.488281 C 1292.304688 452.804688 1294.464844 450.167969 1296.675781 447.574219 C 1298.886719 444.976562 1301.148438 442.429688 1303.460938 439.921875 C 1305.773438 437.417969 1308.136719 434.960938 1310.546875 432.550781 C 1312.957031 430.140625 1315.417969 427.78125 1317.921875 425.46875 C 1320.425781 423.160156 1322.980469 420.898438 1325.574219 418.6875 C 1328.171875 416.480469 1330.808594 414.324219 1333.492188 412.21875 C 1336.175781 410.113281 1338.898438 408.066406 1341.664062 406.070312 C 1344.429688 404.074219 1347.230469 402.136719 1350.074219 400.253906 C 1352.914062 398.371094 1355.792969 396.546875 1358.710938 394.78125 C 1361.625 393.011719 1364.574219 391.304688 1367.558594 389.65625 C 1370.542969 388.003906 1373.554688 386.417969 1376.605469 384.886719 C 1379.652344 383.359375 1382.726562 381.890625 1385.832031 380.484375 C 1388.9375 379.082031 1392.070312 377.738281 1395.230469 376.457031 C 1398.390625 375.175781 1401.574219 373.960938 1404.78125 372.808594 C 1407.992188 371.65625 1411.222656 370.566406 1414.472656 369.542969 C 1417.726562 368.519531 1420.996094 367.5625 1424.285156 366.667969 C 1427.578125 365.777344 1430.882812 364.949219 1434.207031 364.191406 C 1437.53125 363.429688 1440.867188 362.734375 1444.21875 362.109375 C 1447.570312 361.484375 1450.929688 360.921875 1454.304688 360.429688 C 1457.675781 359.9375 1461.058594 359.515625 1464.449219 359.15625 C 1467.839844 358.800781 1471.238281 358.511719 1474.636719 358.292969 C 1481.277344 357.828125 1487.921875 357.644531 1494.578125 357.742188 C 1501.230469 357.84375 1507.867188 358.222656 1514.488281 358.886719 C 1521.113281 359.546875 1527.691406 360.488281 1534.234375 361.710938 C 1540.777344 362.929688 1547.253906 364.425781 1553.667969 366.195312 C 1560.085938 367.964844 1566.414062 370.003906 1572.65625 372.3125 C 1578.898438 374.617188 1585.03125 377.1875 1591.054688 380.011719 C 1597.078125 382.839844 1602.972656 385.917969 1608.734375 389.246094 C 1614.496094 392.574219 1620.109375 396.136719 1625.570312 399.941406 Z M 1625.570312 399.941406 " fill-opacity="1" fill-rule="nonzero"/></g></g></g></svg>